<svg width="72" height="72" viewBox="0 0 72 72" fill="none" xmlns="http://www.w3.org/2000/svg">
<path d="M72 36C72 55.8823 55.8823 72 36 72C16.1177 72 0 55.8823 0 36C0 16.1177 16.1177 0 36 0C55.8823 0 72 16.1177 72 36ZM12.6 36C12.6 48.9235 23.0765 59.4 36 59.4C48.9235 59.4 59.4 48.9235 59.4 36C59.4 23.0765 48.9235 12.6 36 12.6C23.0765 12.6 12.6 23.0765 12.6 36Z" fill="#F6DB3F"/>
<path d="M57.0011 57.0011C59.4614 59.4614 59.486 63.5049 56.6349 65.4992C52.5674 68.3444 47.9361 70.331 43.0233 71.3083C36.0399 72.6973 28.8015 71.9844 22.2234 69.2597C15.6453 66.5349 10.0228 61.9207 6.06709 56.0005C2.11136 50.0804 4.3852e-07 43.1201 0 36C-4.3852e-07 28.8799 2.11136 21.9196 6.06709 15.9995C10.0228 10.0793 15.6453 5.46509 22.2234 2.74034C28.8015 0.0155829 36.0399 -0.697338 43.0232 0.691729C47.9361 1.66895 52.5674 3.65563 56.6349 6.50079C59.486 8.49513 59.4614 12.5386 57.0011 14.9989C54.5408 17.4592 50.5751 17.3658 47.549 15.6486C45.3864 14.4213 43.0303 13.54 40.5651 13.0496C36.026 12.1467 31.321 12.6101 27.0452 14.3812C22.7694 16.1523 19.1148 19.1515 16.5436 22.9997C13.9724 26.8478 12.6 31.3719 12.6 36C12.6 40.6281 13.9724 45.1522 16.5436 49.0003C19.1148 52.8485 22.7694 55.8477 27.0452 57.6188C31.321 59.3899 36.026 59.8533 40.5651 58.9504C43.0303 58.46 45.3864 57.5787 47.549 56.3514C50.5751 54.6342 54.5408 54.5408 57.0011 57.0011Z" fill="#03AE66"/>
<circle cx="36" cy="36" r="8" fill="#FF584C"/>
</svg>
