<svg width="40" height="40" viewBox="0 0 40 40" fill="none" xmlns="http://www.w3.org/2000/svg">
<path d="M28.9818 10.7528C28.1516 10.8255 27.4206 10.5967 26.7886 10.0664C26.1566 9.53611 25.8044 8.85589 25.7317 8.02573C25.6591 7.19556 25.8879 6.46451 26.4182 5.83255C26.9485 5.2006 27.6287 4.8483 28.4588 4.77567C29.289 4.70305 30.0201 4.93187 30.652 5.46214C31.284 5.99241 31.6363 6.67263 31.7089 7.50279C31.7815 8.33295 31.5527 9.06401 31.0224 9.69597C30.4922 10.3279 29.8119 10.6802 28.9818 10.7528ZM11.0503 12.3216C10.2201 12.3943 9.48905 12.1655 8.8571 11.6352C8.22514 11.1049 7.87285 10.4247 7.80022 9.59453C7.72759 8.76437 7.95641 8.03331 8.48668 7.40135C9.01696 6.7694 9.69717 6.41711 10.5273 6.34448C11.3575 6.27185 12.0886 6.50067 12.7205 7.03094C13.3525 7.56122 13.7048 8.24143 13.7774 9.0716C13.85 9.90176 13.6212 10.6328 13.0909 11.2648C12.5607 11.8967 11.8804 12.249 11.0503 12.3216ZM20.4954 17.0163C19.6652 17.0889 18.9342 16.8601 18.3022 16.3299C17.6703 15.7996 17.318 15.1194 17.2453 14.2892C17.1727 13.459 17.4015 12.728 17.9318 12.096C18.4621 11.4641 19.1423 11.1118 19.9724 11.0391C20.8026 10.9665 21.5337 11.1953 22.1656 11.7256C22.7976 12.2559 23.1499 12.9361 23.2225 13.7663C23.2951 14.5964 23.0663 15.3275 22.536 15.9594C22.0058 16.5914 21.3255 16.9437 20.4954 17.0163ZM19.5367 6.05817C18.7065 6.1308 17.9754 5.90198 17.3435 5.37171C16.7115 4.84144 16.3592 4.16122 16.2866 3.33106C16.214 2.5009 16.4428 1.76984 16.9731 1.13788C17.5034 0.505928 18.1836 0.153636 19.0137 0.081006C19.8439 0.00837617 20.575 0.237198 21.2069 0.76747C21.8389 1.29774 22.1912 1.97796 22.2638 2.80812C22.3364 3.63828 22.1076 4.36934 21.5773 5.0013C21.047 5.63325 20.3668 5.98554 19.5367 6.05817ZM21.8027 31.9592C21.1386 32.0173 20.4618 32.0264 19.7723 31.9863C19.0829 31.9462 18.4155 31.8708 17.77 31.76L17.1468 24.6372C17.0452 23.4749 17.3475 22.4363 18.0537 21.5213C18.76 20.6062 19.661 20.1008 20.7568 20.0049C21.8527 19.909 22.8278 20.2503 23.6822 21.0288C24.5367 21.8073 25.0147 22.7777 25.1164 23.9399L25.7396 31.0627C25.1232 31.2839 24.479 31.4741 23.8069 31.6333C23.1349 31.7925 22.4668 31.9011 21.8027 31.9592ZM14.6899 30.9754C14.0025 30.7679 13.3372 30.5249 12.6938 30.2466C12.0504 29.9683 11.429 29.6546 10.8297 29.3055C9.84179 28.7227 9.02741 27.924 8.38653 26.9093C7.74566 25.8946 7.37293 24.7896 7.26834 23.5942C7.19281 22.7308 7.03104 21.9335 6.78304 21.2024C6.53504 20.4712 6.14954 19.7939 5.62654 19.1704C5.25671 18.7678 4.57671 18.1664 3.58654 17.3663C2.59638 16.5663 1.68601 15.8178 0.855443 15.1208C0.458214 14.7875 0.234906 14.3386 0.185517 13.7741C0.136129 13.2096 0.278092 12.7287 0.611406 12.3315C0.944721 11.9343 1.39363 11.711 1.95814 11.6616C2.52265 11.6122 3.00352 11.7541 3.40075 12.0875L11.6535 18.6431C12.3699 19.1827 12.9215 19.8455 13.3081 20.6315C13.6948 21.4174 13.9258 22.2421 14.0014 23.1055L14.6899 30.9754ZM28.6366 29.7552L27.9481 21.8853C27.8726 21.0219 27.9645 20.1606 28.2239 19.3014C28.4834 18.4422 28.9039 17.7027 29.4854 17.083L36.4744 9.19388C36.8409 8.79375 37.2982 8.56972 37.8461 8.52178C38.394 8.47384 38.8665 8.61653 39.2638 8.94985C39.661 9.28316 39.8843 9.73207 39.9337 10.2966C39.9831 10.8611 39.8411 11.342 39.5078 11.7392C38.8109 12.5698 38.0436 13.4567 37.2059 14.3999C36.3683 15.3432 35.8038 16.0618 35.5124 16.5557C35.1056 17.2605 34.8436 17.9945 34.7263 18.7576C34.609 19.5208 34.5882 20.334 34.6637 21.1974C34.7683 22.3928 34.5938 23.5541 34.1403 24.6812C33.6869 25.8084 33.0077 26.7462 32.1028 27.4945C31.6034 27.9063 31.0611 28.3051 30.4759 28.6909C29.8906 29.0767 29.2775 29.4315 28.6366 29.7552Z" fill="#F6DB3F"/>
</svg>
