<svg width="33" height="33" viewBox="0 0 33 33" fill="none" xmlns="http://www.w3.org/2000/svg">
<path d="M14.6602 0.0930036C10.9946 0.496904 7.57078 2.1198 4.93758 4.7016C2.30429 7.2834 0.614143 10.6745 0.138003 14.3314C-0.338127 17.9883 0.427323 21.6992 2.31167 24.8692C4.19598 28.0392 7.09008 30.4847 10.5301 31.8137C10.6527 31.8544 10.7836 31.8631 10.9105 31.8391C11.0374 31.815 11.1561 31.759 11.2553 31.6764C11.3545 31.5937 11.431 31.4871 11.4776 31.3666C11.5241 31.2461 11.5392 31.1158 11.5213 30.9878V28.3443C11.0332 28.4538 10.5345 28.5092 10.0342 28.5095C9.17458 28.4928 8.34998 28.1659 7.71238 27.589C7.07478 27.0122 6.66718 26.2243 6.56468 25.3706C6.39908 24.7364 6.05508 24.163 5.57348 23.7183C5.07758 23.553 4.91288 23.553 4.91288 23.3877C4.91288 23.0571 5.40878 23.0571 5.57348 23.0571C6.56468 23.0571 7.39118 24.2136 7.72118 24.7095C8.54708 26.0313 9.53888 26.3618 10.0342 26.3618C10.5489 26.3692 11.0582 26.256 11.5213 26.0313C11.5733 25.4476 11.7472 24.8813 12.0319 24.3691C12.3165 23.8568 12.7055 23.4101 13.1737 23.0577C9.37358 22.2317 6.56528 20.084 6.56528 16.4493C6.62138 14.6151 7.32348 12.8597 8.54768 11.4927C8.29018 10.75 8.17788 9.9648 8.21708 9.1797C8.16448 8.448 8.27748 7.7139 8.54768 7.032C8.55528 6.9029 8.60988 6.7812 8.70128 6.6898C8.79268 6.5983 8.91448 6.5437 9.04358 6.5361H9.20888C10.7123 6.8486 12.0911 7.5953 13.1742 8.6838C14.2427 8.3457 15.3578 8.1784 16.4784 8.1879C17.5991 8.1784 18.7142 8.3457 19.7826 8.6838C20.923 7.5833 22.358 6.8373 23.9139 6.5361H24.0792C24.4098 6.5361 24.5751 6.7014 24.7398 7.032V9.1797C24.7967 9.9655 24.684 10.7543 24.4092 11.4927C25.6603 12.8428 26.3666 14.6087 26.3916 16.4493C26.3916 20.0846 23.5827 22.2317 19.7832 23.0577C20.3095 23.5399 20.7286 24.1274 21.0133 24.7821C21.2979 25.4367 21.4418 26.1439 21.4356 26.8577V31.1531C21.4412 31.2901 21.478 31.424 21.5433 31.5445C21.6085 31.6651 21.7004 31.7692 21.8119 31.8488C21.9235 31.9285 22.0517 31.9816 22.1869 32.0042C22.3221 32.0268 22.4607 32.0182 22.5921 31.979C26.308 30.4876 29.3589 27.7023 31.1817 24.1372C33.0046 20.5721 33.4762 16.468 32.5096 12.5824C31.5431 8.6968 29.2035 5.292 25.9228 2.9964C22.6421 0.700923 18.6418 -0.330346 14.6602 0.0930036Z" fill="#03AE66"/>
</svg>
