<svg width="28" height="47" viewBox="0 0 28 47" fill="none" xmlns="http://www.w3.org/2000/svg">
<path d="M7.29271 46.2222L3.98034 43.9248L10.8639 34.0873L7.65117 31.7986L4.20938 36.7173L0.897009 34.4199L12.7092 17.5853C11.5606 16.1799 10.7435 14.6194 10.2579 12.9039C9.77221 11.1883 9.60637 9.4506 9.76034 7.69065C9.86493 6.49522 10.1182 5.32116 10.5202 4.16848C10.9222 3.01579 11.5032 1.9206 12.2632 0.882885L15.476 3.1716C14.9442 3.89468 14.5432 4.65428 14.2728 5.45041C14.0023 6.24654 13.8294 7.07629 13.7538 7.93966C13.5999 9.6996 13.887 11.3894 14.6153 13.009C15.3436 14.6287 16.464 15.9731 17.9766 17.0423L22.2328 20.0246C24.187 21.4002 25.5476 23.2508 26.3145 25.5765C27.0814 27.9022 27.3791 30.0446 27.2077 32.0038C27.0973 33.2657 26.8238 34.4798 26.3871 35.6462C25.9505 36.8125 25.3868 37.9009 24.6961 38.9112L21.3838 36.6138C21.9184 35.8575 22.3216 35.073 22.5935 34.2602C22.8654 33.4475 23.0391 32.6095 23.1146 31.7461C23.2076 30.6835 23.1482 29.641 22.9365 28.6187C22.7248 27.5963 22.3246 26.6244 21.736 25.7029L7.29271 46.2222ZM23.4382 17.7209C22.3424 17.6251 21.4384 17.1528 20.7264 16.3042C20.0143 15.4556 19.7062 14.4833 19.802 13.3875C19.8979 12.2917 20.3702 11.3878 21.2188 10.6757C22.0674 9.9636 23.0396 9.65549 24.1354 9.75137C25.2313 9.84724 26.1352 10.3195 26.8473 11.1681C27.5594 12.0167 27.8675 12.989 27.7716 14.0848C27.6757 15.1806 27.2035 16.0845 26.3549 16.7966C25.5062 17.5087 24.534 17.8168 23.4382 17.7209ZM19.3288 7.3232C18.4654 7.24766 17.7776 6.88634 17.2654 6.23924C16.7532 5.59213 16.5319 4.8701 16.6017 4.07315C16.6772 3.20978 17.0385 2.52199 17.6856 2.00977C18.3327 1.49755 19.0548 1.27631 19.8517 1.34603C20.7151 1.42156 21.4029 1.78288 21.9151 2.42999C22.4273 3.0771 22.6486 3.79913 22.5788 4.59608C22.5033 5.45945 22.142 6.14724 21.4949 6.65946C20.8478 7.17168 20.1257 7.39292 19.3288 7.3232Z" fill="#F6DB3F"/>
</svg>
