<svg width="55" height="55" viewBox="0 0 55 55" fill="none" xmlns="http://www.w3.org/2000/svg">
<path d="M26.2 43C21.9334 42.7778 18.3334 41.1333 15.4 38.0667C12.4667 35 11 31.3111 11 27C11 22.5555 12.5556 18.7778 15.6667 15.6666C18.7778 12.5555 22.5556 11 27 11C31.3112 11 35 12.4666 38.0667 15.4C41.1334 18.3333 42.7778 21.9333 43 26.2L37.4 24.5333C36.8223 22.1333 35.5778 20.1666 33.6667 18.6333C31.7556 17.1 29.5334 16.3333 27 16.3333C24.0667 16.3333 21.5556 17.3778 19.4667 19.4666C17.3778 21.5555 16.3334 24.0666 16.3334 27C16.3334 29.5333 17.1 31.7555 18.6334 33.6666C20.1667 35.5778 22.1334 36.8222 24.5334 37.4L26.2 43ZM29.4 53.5333C29 53.6222 28.6 53.6666 28.2 53.6666H27C23.3112 53.6666 19.8445 52.9666 16.6 51.5666C13.3556 50.1666 10.5334 48.2667 8.13337 45.8666C5.73337 43.4666 3.83337 40.6444 2.43337 37.4C1.03337 34.1555 0.333374 30.6889 0.333374 27C0.333374 23.3111 1.03337 19.8444 2.43337 16.6C3.83337 13.3555 5.73337 10.5333 8.13337 8.13331C10.5334 5.73331 13.3556 3.83331 16.6 2.43331C19.8445 1.03331 23.3112 0.333313 27 0.333313C30.6889 0.333313 34.1556 1.03331 37.4 2.43331C40.6445 3.83331 43.4667 5.73331 45.8667 8.13331C48.2667 10.5333 50.1667 13.3555 51.5667 16.6C52.9667 19.8444 53.6667 23.3111 53.6667 27V28.2C53.6667 28.6 53.6223 29 53.5334 29.4L48.3334 27.8V27C48.3334 21.0444 46.2667 16 42.1334 11.8666C38 7.73331 32.9556 5.66665 27 5.66665C21.0445 5.66665 16 7.73331 11.8667 11.8666C7.73337 16 5.66671 21.0444 5.66671 27C5.66671 32.9555 7.73337 38 11.8667 42.1333C16 46.2666 21.0445 48.3333 27 48.3333H27.8L29.4 53.5333ZM49.7334 55L38.3334 43.6L35 53.6666L27 27L53.6667 35L43.6 38.3333L55 49.7333L49.7334 55Z" fill="#F6DB3F"/>
</svg>
